<?xml version="1.0" encoding="UTF-8" standalone="no"?>
<!-- Created with Inkscape (http://www.inkscape.org/) -->

<svg version="1.1" id="svg3819" xml:space="preserve"
   width="682.66669" height="682.66669"
   viewBox="0 0 682.66669 682.66669"
   xmlns="http://www.w3.org/2000/svg"
   xmlns:svg="http://www.w3.org/2000/svg">
  <defs>
    <clipPath clipPathUnits="userSpaceOnUse" id="clipPath3833">
      <path d="M 0,512 H 512 V 0 H 0 Z" />
    </clipPath>
  </defs>
  <g transform="matrix(1.3333333,0,0,-1.3333333,0,682.66667)">
    <g clip-path="url(#clipPath3833)">
      <g transform="translate(497,347)">
        <path d="m 0,0 c 0,82.843 -67.157,150 -150,150 -82.843,0 -150,-67.157 -150,-150 0,-82.843 67.157,-150 150,-150 H 0 l -40.863,47.106 C -15.532,-76.035 0,-39.833 0,0 Z"
              style="fill:none;stroke:#FFBF00;stroke-width:30;stroke-linecap:round;stroke-linejoin:round;stroke-miterlimit:10" />
      </g>
      <g transform="translate(332,260)">
        <path d="m 0,0 c 0,-8.284 6.716,-15 15,-15 8.284,0 15,6.716 15,15 C 30,8.284 23.284,15 15,15 6.716,15 0,8.284 0,0"
              style="fill:#FFBF00;fill-opacity:1;fill-rule:nonzero;stroke:none" />
      </g>
      <g transform="translate(304.4526,392.4521)">
        <path d="M 0,0 C 0,2.015 0.14,3.995 0.41,5.935 3.337,26.905 21.548,42.979 43.425,42.539 65.556,42.093 83.889,24.369 85.036,2.264 86.308,-22.232 66.796,-42.547 42.547,-42.547 v -44.491"
              style="fill:none;stroke:#FFBF00;stroke-width:30;stroke-linecap:round;stroke-linejoin:round;stroke-miterlimit:10" />
      </g>
      <g transform="translate(201.4756,310.5244)">
        <path d="m 0,0 c -11.678,2.918 -23.894,4.476 -36.476,4.476 -82.842,0 -150,-67.158 -150,-150 0,-39.833 15.533,-76.036 40.864,-102.894 l -40.864,-47.106 h 150 c 82.843,0 150,67.157 150,150 0,12.582 -1.557,24.797 -4.475,36.475 C 55.513,-95.673 13.376,-53.536 0,0 Z"
              style="fill:none;stroke:#FFBF00;stroke-width:30;stroke-linecap:round;stroke-linejoin:round;stroke-miterlimit:10" />
      </g>
      <g transform="translate(115,195)">
        <path d="M 0,0 H 100"
              style="fill:none;stroke:#FFBF00;stroke-width:30;stroke-linecap:round;stroke-linejoin:round;stroke-miterlimit:10" />
      </g>
      <g transform="translate(115,135)">
        <path d="M 0,0 H 100"
              style="fill:none;stroke:#FFBF00;stroke-width:30;stroke-linecap:round;stroke-linejoin:round;stroke-miterlimit:10" />
      </g>
    </g>
  </g>
</svg>
