<svg id="Layer_1" enable-background="new 0 0 500 500" viewBox="0 0 500 500" xmlns="http://www.w3.org/2000/svg"><path fill="#7B3F00" clip-rule="evenodd" d="m474.754 272.969c3.879 0 7.024 3.145 7.024 7.024s-3.145 7.024-7.024 7.024h-20.634c-3.879 0-7.024-3.145-7.024-7.024s3.145-7.024 7.024-7.024zm-367.922 172.355v-107.318c0-3.54-2.922-6.461-6.461-6.461h-31.566c-3.54 0-6.461 2.922-6.461 6.461v107.318c0 3.54 2.922 6.461 6.461 6.461h31.566c3.539 0 6.461-2.921 6.461-6.461zm170.853-96.681h-76.093v-.008c-.598 0-1.206-.077-1.811-.239-28.277-7.559-50.399-8.475-78.051-5.935-.484.044-.851.447-.851.933v89.302c0 .492.377.898.868.934 5.088.375 10.308.803 15.728 1.289 56.048 5.022 108.853 26.939 163.074 5.22 11.821-4.735 23.278-10.979 37.463-19.168l.007.012 106.116-74.148c.007-.005.013-.009.021-.014.113-.075.23-.148.349-.216 11.63-6.716 9.672-24.526-3.7-28.109-3.827-1.025-8.025-.61-11.67 1.495l-91.728 52.959c-.201.116-1.471.877-3.058 1.82-2.991 1.777-53.01 20.319-56.663 20.319h-76.093c-3.879 0-7.024-3.145-7.024-7.024s3.145-7.024 7.024-7.024h76.093c14.34 0 21.681-17.386 11.435-27.633-2.94-2.941-6.989-4.765-11.436-4.765zm67.398-149.96c0-6.11-5.024-11.135-11.135-11.135h-167.896c-6.11 0-11.135 5.024-11.135 11.135v13.168c0 .354.182.658.494.825l81.45 43.634c8.461 4.532 17.818 4.532 26.278 0l81.45-43.634c.312-.167.494-.471.494-.825zm-46.46-26.118v-15.338c0-11.862-9.68-21.543-21.543-21.543h-54.16c-11.863 0-21.543 9.68-21.543 21.543v15.338c0 .516.42.936.936.936h12.175c.516 0 .936-.42.936-.936v-15.338c0-4.108 3.387-7.495 7.495-7.495h54.16c4.108 0 7.495 3.387 7.495 7.495v15.338c0 .516.42.936.936.936h12.175c.518 0 .938-.42.938-.936zm45.081 56.459c.298-.16.633-.152.923.022s.455.464.455.803v76.222c0 6.11-5.025 11.135-11.135 11.135h-167.895c-6.11 0-11.135-5.025-11.135-11.135v-76.222c0-.339.165-.629.455-.803.291-.174.625-.182.923-.022l73.981 39.633c12.695 6.801 26.752 6.801 39.447 0zm-318.458 57.993c-3.879 0-7.024-3.145-7.024-7.024s3.145-7.024 7.024-7.024h20.634c3.879 0 7.024 3.145 7.024 7.024s-3.145 7.024-7.024 7.024zm26.627-113.338c-3.348-1.924-4.503-6.199-2.579-9.548s6.199-4.503 9.548-2.579l17.87 10.317c3.348 1.924 4.503 6.199 2.579 9.548-1.924 3.348-6.199 4.503-9.548 2.579zm79.686-84.817c-1.939-3.348-.797-7.636 2.552-9.575s7.636-.797 9.575 2.552l10.317 17.87c1.939 3.348.797 7.636-2.552 9.575-3.348 1.939-7.636.797-9.575-2.552zm111.417-33.623c0-3.879 3.145-7.024 7.024-7.024s7.024 3.145 7.024 7.024v20.634c0 3.879-3.145 7.024-7.024 7.024s-7.024-3.145-7.024-7.024zm113.338 26.599c1.939-3.348 6.227-4.491 9.575-2.552 3.349 1.939 4.491 6.227 2.552 9.575l-10.317 17.87c-1.939 3.348-6.227 4.491-9.575 2.552s-4.491-6.227-2.552-9.575zm84.845 79.714c3.348-1.924 7.623-.77 9.548 2.579 1.924 3.348.77 7.623-2.579 9.548l-17.87 10.317c-3.348 1.924-7.623.77-9.548-2.579-1.924-3.348-.77-7.623 2.579-9.548z" fill-rule="evenodd"/></svg>
